<?xml version="1.0" encoding="UTF-8"?>
<svg id="Ebene_1" data-name="Ebene 1" xmlns="http://www.w3.org/2000/svg" viewBox="0 0 208.78 373.14">
  <defs>
    <style>
      .cls-1 {
        fill: #fff;
      }

      .cls-2 {
        fill: #7ecbb9;
      }
    </style>
  </defs>
  <path class="cls-2" d="M184.21,210.49c-1.43-.67-2.88-1.3-4.53-2.05,6.62-5.38,13.59-9.68,18.84-15.54,18.8-20.99,10.7-53.56-15.49-64.07-1.16-.47-2.28-1.05-3.96-1.82,4.72-3.57,8.97-6.75,13.19-9.97,11.92-9.11,17.31-21.07,16.15-36.11-1.69-21.79-23.84-39.56-45.34-35.67-6.36,1.15-12.41,4.02-18.82,6.18,0-3.79,.03-7.93-.04-12.08C143.85,17.39,125.92-.15,103.99,0c-21.77,.15-39.44,17.64-39.72,39.36-.05,4.25,.01,8.51,.02,13.5-2.19-1.25-3.57-2.08-4.99-2.84-7.21-3.89-14.87-5.95-23.07-4.85-17.17,2.32-30.88,14.45-34.96,30.67-4.1,16.32,1.76,31.47,16.37,42.39,3.94,2.94,7.84,5.93,12.28,9.3-2.22,.93-3.75,1.52-5.24,2.2-23.28,10.54-34.09,42.18-13.78,63.85,5.28,5.63,12.05,9.86,18.28,14.85-.3,.57-.34,.77-.46,.84-.43,.25-.87,.48-1.33,.66-15.07,6.17-24.09,17.31-25.41,33.52-1.35,16.47,6.24,28.67,20.11,37.49,24.31,15.46,48.38,31.3,72.65,46.83,2.84,1.82,3.5,3.91,3.47,6.98-.09,10.16-.04,20.33,.15,30.5,.1,5.43,3.09,8.42,7.45,7.83,4.56-.62,5.88-3.82,5.87-7.91-.02-10,.15-20.01-.16-30-.12-3.86,1.31-5.94,4.46-7.98,24.88-16.12,49.72-32.3,74.4-48.72,12.58-8.37,18.38-20.62,17.1-35.54-1.29-15.14-9.49-25.96-23.29-32.44Z"/>
  <g id="Layer_1">
    <path class="cls-1" d="M134.25,289.73c-1.64-11.2-5.14-19.3-10.39-26.43-3.63-4.93-8.15-9.52-13.51-14.39l2.74-2.5h-.01c1.82-1.61,3.61-3.31,5.4-4.94l.16-.15c5.51,5.06,10.25,9.92,14.2,15.3,6.29,8.55,10.46,18.15,12.4,31.31l-11,1.81h0Zm-50.28-21.99l35.11-.5,5.51,8.45-45.32,.65c-1.92,4.35-3.33,9.02-4.07,14.15l-10.98-1.32c3.7-25.71,20.3-40.82,36.92-55.96,1.88-1.71,3.75-3.42,5.25-4.8,6.53-6.05,12.79-12.26,17.78-19.24l-31.31,.45-5.51-8.45,42.04-.6c2.81-5.62,4.79-11.86,5.57-19.03l-58.92,.84c.39,11.1,4.2,19.86,9.86,27.54,3.94,5.34,8.83,10.25,14.15,15.08l-3.19,2.91c-.19,.16-.37,.32-.55,.5-1.53,1.39-3.05,2.78-4.56,4.18-5.48-5.01-10.57-10.19-14.84-15.98-7.04-9.55-11.71-20.56-11.97-34.74-.28-15.13,3.64-27.14,9.84-37.44,4.93-8.18,11.21-15.12,17.94-21.65,1.63,1.43,3.32,2.89,5.06,4.39,1.1,.94,2.19,1.88,3.27,2.82-5.14,4.94-9.98,10.06-13.98,15.69l31.99-.46,5.51,8.45-42.69,.61c-2.86,5.76-4.85,12.18-5.58,19.56l59.01-.84c-.27-11.41-4.11-20.35-9.87-28.18-6.07-8.24-14.44-15.46-23.12-22.93-9.8-8.43-17.74-15.49-23.84-23.78-6.29-8.55-10.46-18.15-12.4-31.31l11-1.8c1.65,11.2,5.14,19.29,10.39,26.43,5.44,7.39,12.91,14.03,22.16,21.98,9.18,7.89,18.02,15.53,24.81,24.72,7.04,9.55,11.7,20.56,11.97,34.74,.28,15.13-3.64,27.14-9.84,37.44-6.08,10.09-14.21,18.29-22.7,26.15-2.01,1.86-3.67,3.38-5.34,4.89-9.05,8.24-18.08,16.47-24.55,26.39h0ZM126.81,87.83l-33.91,.48-5.51-8.45,44.29-.63c2.11-4.58,3.66-9.53,4.44-14.98l10.98,1.32c-3,20.82-14.45,34.69-27.53,47.25-1.79-1.56-3.59-3.11-5.41-4.68-1-.86-1.98-1.71-2.94-2.54,5.79-5.53,11.24-11.3,15.59-17.78h0Z"/>
  </g>
</svg>